# xmcd CD database file
#
# Track frame offsets:
#	150
#	16001
#	57859
#	85714
#	113919
#	139368
#	175876
#	195443
#	219064
#	249407
#	287229
#
# Disc length: 4177 seconds
#
# Revision: 1
# Processed by: cddbd v1.5.2PL0 Copyright (c) Steve Scherf et al.
# Submitted via: CDex 1.70beta2
#
DISCID=8f104f0b
DTITLE=Rubén Blades - Cali Concert
DYEAR=2006
DGENRE=Salsa
TTITLE0=Caminando
TTITLE1=Juan Pachanga
TTITLE2=Pablo Pueblo
TTITLE3=Decisiones
TTITLE4=Buscando Guayaba
TTITLE5=Plástico
TTITLE6=The Hag at the Churn
TTITLE7=Sebastián
TTITLE8=Te Están Buscando
TTITLE9=El Padre Antonio y Su Monaguillo Andrés
TTITLE10=Plantación Adentro
EXTD=YEAR: 2006
EXTT0=
EXTT1=
EXTT2=
EXTT3=
EXTT4=
EXTT5=
EXTT6=
EXTT7=
EXTT8=
EXTT9=
EXTT10=
PLAYORDER=
